HIERARCHY
ROOT SpineBase
{
  OFFSET 0.000000 0.000000 0.000000
  CHANNELS 6 Xposition Yposition Zposition Zrotation Xrotation Yrotation
  JOINT SpineMid
  {
    OFFSET 0.000000 26.975710 0.000000
    CHANNELS 3 Zrotation Xrotation Yrotation
    JOINT SpineShoulder
    {
      OFFSET -0.033231 20.086327 -0.608523
      CHANNELS 3 Zrotation Xrotation Yrotation
      JOINT Neck
      {
        OFFSET -0.026332 6.663547 -0.477298
        CHANNELS 3 Zrotation Xrotation Yrotation
        JOINT Head
        {
          OFFSET -3.949843 12.736394 -1.657292
          CHANNELS 3 Zrotation Xrotation Yrotation
          End Site
          {
            OFFSET 0 0 0
          }
        }
      }
      JOINT ShoulderLeft
      {
        OFFSET -12.935410 -3.527589 5.708528
        CHANNELS 3 Zrotation Xrotation Yrotation
        JOINT ElbowLeft
        {
          OFFSET 0.000539 -18.307826 -2.328187
          CHANNELS 3 Zrotation Xrotation Yrotation
          JOINT WristLeft
          {
            OFFSET 2.143037 -3.308772 -19.989890
            CHANNELS 3 Zrotation Xrotation Yrotation
            JOINT HandLeft
            {
              OFFSET -0.000823 -2.523847 -0.995799
              CHANNELS 3 Zrotation Xrotation Yrotation
              JOINT HandTipLeft
              {
                OFFSET 0.743252 -2.059610 -2.045425
                CHANNELS 3 Zrotation Xrotation Yrotation
                End Site
                {
                  OFFSET 0 0 0
                }
              }
              JOINT ThumbLeft
              {
                OFFSET -0.493609 3.345609 -1.795420
                CHANNELS 3 Zrotation Xrotation Yrotation
                End Site
                {
                  OFFSET 0 0 0
                }
              }
            }
          }
        }
      }
      JOINT ShoulderRight
      {
        OFFSET 10.419338 -2.580358 -7.786524
        CHANNELS 3 Zrotation Xrotation Yrotation
        JOINT ElbowRight
        {
          OFFSET 8.621847 -18.756950 -1.231471
          CHANNELS 3 Zrotation Xrotation Yrotation
          JOINT WristRight
          {
            OFFSET -22.992075 -4.779546 -9.535615
            CHANNELS 3 Zrotation Xrotation Yrotation
            JOINT HandRight
            {
              OFFSET -4.919958 -1.376966 0.318891
              CHANNELS 3 Zrotation Xrotation Yrotation
              JOINT HandTipRight
              {
                OFFSET -4.161309 -1.958667 -0.081387
                CHANNELS 3 Zrotation Xrotation Yrotation
                End Site
                {
                  OFFSET 0 0 0
                }
              }
              JOINT ThumbRight
              {
                OFFSET -0.720886 -3.484968 -0.436907
                CHANNELS 3 Zrotation Xrotation Yrotation
                End Site
                {
                  OFFSET 0 0 0
                }
              }
            }
          }
        }
      }
    }
  }
  JOINT HipLeft
  {
    OFFSET -5.524011 0.070312 -0.617953
    CHANNELS 3 Zrotation Xrotation Yrotation
    JOINT KneeLeft
    {
      OFFSET 5.172364 -32.968591 3.976458
      CHANNELS 3 Zrotation Xrotation Yrotation
      JOINT AnkleLeft
      {
        OFFSET 6.404717 -31.285592 7.408313
        CHANNELS 3 Zrotation Xrotation Yrotation
        JOINT FootLeft
        {
          OFFSET -3.774645 -5.610160 -1.921302
          CHANNELS 3 Zrotation Xrotation Yrotation
          End Site
          {
            OFFSET 0 0 0
          }
        }
      }
    }
  }
  JOINT HipRight
  {
    OFFSET 5.142862 1.281989 -5.499564
    CHANNELS 3 Zrotation Xrotation Yrotation
    JOINT KneeRight
    {
      OFFSET 5.768777 -32.150657 0.301301
      CHANNELS 3 Zrotation Xrotation Yrotation
      JOINT AnkleRight
      {
        OFFSET 4.909060 -30.782697 4.656460
        CHANNELS 3 Zrotation Xrotation Yrotation
        JOINT FootRight
        {
          OFFSET -4.187655 -6.669777 0.889652
          CHANNELS 3 Zrotation Xrotation Yrotation
          End Site
          {
            OFFSET 0 0 0
          }
        }
      }
    }
  }
}
MOTION
Frames: 6
Frame Time: 0.033333
23.586185 70.327045 370.192528 -0.000000 0.000000 24.590830 -0.000000 0.000000 -24.590830 -0.000000 0.000000 0.000000 -0.000000 0.000000 0.000000 0.000000 0.000000 0.000000 -0.000000 0.000000 0.000000 -0.000000 0.000000 0.000000 -0.000000 0.000000 0.000000 -0.000000 0.000000 0.000000 0.000000 0.000000 0.000000 0.000000 0.000000 0.000000 -0.000000 0.000000 0.000000 -0.000000 0.000000 0.000000 -0.000000 0.000000 0.000000 -0.000000 0.000000 0.000000 0.000000 0.000000 0.000000 0.000000 0.000000 0.000000 -0.000000 0.000000 -24.590830 -0.000000 0.000000 0.000000 -0.000000 0.000000 0.000000 0.000000 0.000000 0.000000 -0.000000 0.000000 -24.590830 -0.000000 0.000000 0.000000 -0.000000 0.000000 0.000000 0.000000 0.000000 0.000000
23.601432 70.333111 370.225317 0.005135 -0.019189 24.634711 0.003331 0.019583 -24.634711 -0.000000 0.000000 0.000000 -0.000000 0.000000 0.000000 0.000000 0.000000 0.000000 -0.000000 0.000000 0.000000 -0.000000 0.000000 0.000000 -4.430294 2.023306 1.813670 0.214684 -10.391414 -1.216550 0.000000 0.000000 0.000000 0.000000 0.000000 0.000000 -0.000000 0.000000 0.000000 -0.000000 0.000000 0.000000 -4.845233 0.671322 -3.037236 2.887697 -0.803675 3.726422 0.000000 0.000000 0.000000 0.000000 0.000000 0.000000 0.003331 0.019583 -24.634711 -0.000000 0.000000 0.000000 -1.098608 13.331941 -8.114725 0.000000 0.000000 0.000000 0.003331 0.019583 -24.634711 -0.000000 0.000000 0.000000 2.095727 0.054459 0.247237 0.000000 0.000000 0.000000
23.615422 70.337528 370.244103 0.012730 -0.026884 24.658996 -0.000353 0.029743 -24.658993 -0.000000 0.000000 0.000000 -0.000000 0.000000 0.000000 0.000000 0.000000 0.000000 -0.000000 0.000000 0.000000 -0.000000 0.000000 0.000000 -7.490933 3.030694 3.123814 -0.731925 -18.174143 -2.442852 0.000000 0.000000 0.000000 0.000000 0.000000 0.000000 -0.000000 0.000000 0.000000 -0.000000 0.000000 0.000000 -7.777539 1.325391 -5.197002 4.013784 -1.363223 6.204480 0.000000 0.000000 0.000000 0.000000 0.000000 0.000000 -0.000353 0.029743 -24.658993 -0.000000 0.000000 0.000000 -0.804966 23.283554 -14.287632 0.000000 0.000000 0.000000 -0.000353 0.029743 -24.658993 -0.000000 0.000000 0.000000 3.896091 0.252707 0.360426 0.000000 0.000000 0.000000
23.628154 70.340295 370.248884 0.022782 -0.023088 24.663518 -0.011069 0.030489 -24.663511 -0.000000 0.000000 0.000000 -0.000000 0.000000 0.000000 0.000000 0.000000 0.000000 -0.000000 0.000000 0.000000 -0.127695 0.118798 0.843849 -9.216946 3.256360 3.080161 -2.269025 -23.447868 -3.430818 0.000000 0.000000 0.000000 0.000000 0.000000 0.000000 -0.000000 0.000000 0.000000 -0.000000 0.000000 0.000000 -9.509075 1.927985 -6.901431 4.258047 -1.680805 7.713457 0.000000 0.000000 0.000000 0.000000 0.000000 0.000000 -0.011069 0.030489 -24.663511 -0.000000 0.000000 0.000000 -0.040507 30.188487 -18.838070 0.000000 0.000000 0.000000 -0.011069 0.030489 -24.663511 -0.000000 0.000000 0.000000 5.406323 0.585203 0.336818 0.000000 0.000000 0.000000
23.639629 70.341412 370.239661 0.035290 -0.007809 24.648165 -0.028818 0.021815 -24.648157 -0.000000 0.000000 0.000000 -0.000000 0.000000 0.000000 0.000000 0.000000 0.000000 -0.000000 0.000000 0.000000 -0.167974 0.179797 1.121923 -10.052373 2.772560 3.130994 -4.013677 -26.461131 -3.887953 0.000000 0.000000 0.000000 0.000000 0.000000 0.000000 -0.000000 0.000000 0.000000 0.476566 -0.370997 0.858134 -10.807604 3.019694 -9.169231 4.137023 -1.716129 8.444212 0.000000 0.000000 0.000000 0.000000 0.000000 0.000000 -0.028818 0.021815 -24.648157 -0.000000 0.000000 0.000000 0.685362 34.885532 -22.081535 0.000000 0.000000 0.000000 -0.028818 0.021815 -24.648157 -0.000000 0.000000 0.000000 6.634087 1.044734 0.175987 0.000000 0.000000 0.000000
23.649845 70.340880 370.216434 0.050252 0.018948 24.612882 -0.053578 0.003703 -24.612889 -0.000000 0.000000 0.000000 -0.000000 0.000000 0.000000 0.000000 0.000000 0.000000 -0.000000 0.000000 0.000000 -0.207462 0.251450 1.399708 -9.955327 1.586212 2.728964 -5.763941 -27.442226 -3.562042 0.000000 0.000000 0.000000 0.000000 0.000000 0.000000 -0.000000 0.000000 0.000000 0.467935 -0.444735 1.241610 -10.877188 3.721669 -10.990563 3.903857 -1.489898 8.620601 0.000000 0.000000 0.000000 0.000000 0.000000 0.000000 -0.053578 0.003703 -24.612889 -0.000000 0.000000 0.000000 1.140219 38.060018 -24.262725 0.000000 0.000000 0.000000 -0.053578 0.003703 -24.612889 -0.000000 0.000000 0.000000 7.588194 1.626574 -0.120819 0.000000 0.000000 0.000000
